<svg width="110" height="38" viewBox="0 0 110 38" fill="none" xmlns="http://www.w3.org/2000/svg">
<path id="Livia" d="M4.616 11.664C4.616 9.936 4.544 8.64 4.4 7.776C4.256 6.864 3.968 6.096 3.536 5.472C3.104 4.848 2.408 4.128 1.448 3.312L2.096 2.376H14.624L15.128 3.528C14.024 4.152 13.232 4.704 12.752 5.184C12.272 5.664 11.936 6.264 11.744 6.984C11.6 7.704 11.528 8.832 11.528 10.368V30.456C11.528 31.992 11.744 33 12.176 33.48C12.608 33.96 13.568 34.2 15.056 34.2H17.792C19.184 34.2 20.288 33.744 21.104 32.832C21.92 31.872 22.76 30.072 23.624 27.432L25.064 27.936V36.576L24.344 37.224C23.72 36.744 23.024 36.408 22.256 36.216C21.488 36.072 20.336 36 18.8 36H1.088L0.656 34.704C1.856 34.368 2.72 34.056 3.248 33.768C3.776 33.432 4.136 33 4.328 32.472C4.52 31.944 4.616 31.128 4.616 30.024V11.664ZM36.7983 31.896C36.7983 33.336 37.2543 34.056 38.1663 34.056C39.0783 34.056 39.9663 33.696 40.8303 32.976L41.4063 33.696C39.6303 35.664 37.5423 36.648 35.1423 36.648C33.4143 36.648 32.1663 36.216 31.3983 35.352C30.6303 34.44 30.2463 32.976 30.2463 30.96V16.704C30.2463 16.032 29.9343 15.696 29.3103 15.696H27.0783L26.8623 14.904C27.8223 14.088 29.0223 13.416 30.4623 12.888C31.9023 12.36 33.3423 12.096 34.7823 12.096C35.3583 12.096 35.8383 12.24 36.2223 12.528C36.6063 12.816 36.7983 13.2 36.7983 13.68V31.896ZM29.5263 5.184C29.5263 4.32 30.0063 3.36 30.9663 2.304C31.9263 1.248 32.8143 0.719999 33.6303 0.719999C34.4943 0.719999 35.4063 1.248 36.3663 2.304C37.3743 3.36 37.8783 4.32 37.8783 5.184C37.8783 6.096 37.3743 7.08 36.3663 8.136C35.4063 9.144 34.4943 9.648 33.6303 9.648C32.8143 9.648 31.9263 9.144 30.9663 8.136C30.0063 7.08 29.5263 6.096 29.5263 5.184ZM56.0881 34.344C57.6241 34.344 58.8241 33.36 59.6881 31.392C60.6001 29.376 61.0561 26.856 61.0561 23.832C61.0561 19.752 60.1921 16.536 58.4641 14.184L57.8161 13.392L58.3921 12.816L64.4401 12.096C64.5841 14.16 64.6561 15.816 64.6561 17.064C64.6561 23.208 63.7201 28.008 61.8481 31.464C59.9761 34.92 57.4561 36.648 54.2881 36.648C51.7921 36.648 49.8961 35.904 48.6001 34.416C47.3521 32.928 46.4641 30.48 45.9361 27.072L44.4241 16.704C44.3761 16.32 44.2801 16.056 44.1361 15.912C43.9921 15.768 43.7761 15.696 43.4881 15.696H41.5441L41.3281 14.904C42.2881 14.04 43.4401 13.368 44.7841 12.888C46.1281 12.36 47.4481 12.096 48.7441 12.096C49.4641 12.096 49.9681 12.312 50.2561 12.744C50.5921 13.176 50.8561 14.04 51.0481 15.336L52.9201 28.224C53.2561 30.576 53.6401 32.184 54.0721 33.048C54.5041 33.912 55.1761 34.344 56.0881 34.344ZM78.2827 31.896C78.2827 33.336 78.7387 34.056 79.6507 34.056C80.5627 34.056 81.4507 33.696 82.3147 32.976L82.8907 33.696C81.1147 35.664 79.0267 36.648 76.6267 36.648C74.8987 36.648 73.6507 36.216 72.8827 35.352C72.1147 34.44 71.7307 32.976 71.7307 30.96V16.704C71.7307 16.032 71.4187 15.696 70.7947 15.696H68.5627L68.3467 14.904C69.3067 14.088 70.5067 13.416 71.9467 12.888C73.3867 12.36 74.8267 12.096 76.2667 12.096C76.8427 12.096 77.3227 12.24 77.7067 12.528C78.0907 12.816 78.2827 13.2 78.2827 13.68V31.896ZM71.0107 5.184C71.0107 4.32 71.4907 3.36 72.4507 2.304C73.4107 1.248 74.2987 0.719999 75.1147 0.719999C75.9787 0.719999 76.8907 1.248 77.8507 2.304C78.8587 3.36 79.3627 4.32 79.3627 5.184C79.3627 6.096 78.8587 7.08 77.8507 8.136C76.8907 9.144 75.9787 9.648 75.1147 9.648C74.2987 9.648 73.4107 9.144 72.4507 8.136C71.4907 7.08 71.0107 6.096 71.0107 5.184ZM92.7485 20.088C91.7405 20.664 90.5405 20.952 89.1485 20.952C88.1405 20.952 87.3485 20.664 86.7725 20.088C86.1965 19.464 85.9085 18.6 85.9085 17.496C85.9085 15.864 86.7005 14.568 88.2845 13.608C89.9165 12.6 92.0285 12.096 94.6205 12.096C97.6925 12.096 100.093 12.768 101.82 14.112C103.597 15.456 104.485 17.28 104.485 19.584V32.04C104.485 33.384 104.965 34.056 105.925 34.056C106.837 34.056 107.725 33.696 108.589 32.976L109.165 33.696C107.389 35.664 105.277 36.648 102.829 36.648C101.389 36.648 100.285 36.288 99.5165 35.568C98.7965 34.848 98.3645 33.72 98.2205 32.184H97.9325C97.1645 33.576 96.1325 34.68 94.8365 35.496C93.5885 36.264 92.1485 36.648 90.5165 36.648C88.6925 36.648 87.2285 36.096 86.1245 34.992C85.0205 33.84 84.4685 32.352 84.4685 30.528C84.4685 28.464 85.4525 26.832 87.4205 25.632C89.3885 24.432 92.0525 23.832 95.4125 23.832C96.0365 23.832 96.9245 23.88 98.0765 23.976V20.376C98.0765 18.024 97.7885 16.344 97.2125 15.336C96.6365 14.28 95.7005 13.752 94.4045 13.752C93.4925 13.752 92.7725 14.04 92.2445 14.616C91.7165 15.192 91.4525 15.936 91.4525 16.848C91.4525 18.288 91.8845 19.368 92.7485 20.088ZM93.8285 33.048C96.6605 33.048 98.0765 30.48 98.0765 25.344C95.6765 25.344 93.8765 25.752 92.6765 26.568C91.4765 27.336 90.8765 28.44 90.8765 29.88C90.8765 30.84 91.1405 31.608 91.6685 32.184C92.1965 32.76 92.9165 33.048 93.8285 33.048Z" fill="black"/>
</svg>
